<svg xmlns="http://www.w3.org/2000/svg" viewBox="0 0 512 512">
  <g id="main">
    <path d="M 171.22 1.75 C 169.347 3.387 165.901 14.963 164.596 24 C 162.353 39.54 159.941 57.447 159.473 62.041 L 158.908 67.583 L 149.125 72.291 C 143.745 74.881 139.026 77 138.639 77 C 138.016 77 129.804 82.101 121.618 87.573 C 120.032 88.633 118.003 89.95 117.107 90.5 C 104.597 98.184 75.863 125.417 65.407 139.5 C 47.926 163.044 39.449 178.883 29.55 206.5 C 26.154 215.975 22.056 232.774 19.884 246.12 C 14.759 277.617 18.06 318.209 28.128 347.5 C 29.262 350.8 30.561 354.85 31.014 356.5 C 35.179 371.674 53.799 405.16 68.051 423.105 C 73.909 430.482 90.491 447.644 97.419 453.5 C 100.021 455.7 102.767 458.07 103.52 458.767 C 104.274 459.463 106.828 461.493 109.195 463.276 C 124.754 474.998 141.267 484.57 160.5 493.016 C 178.772 501.041 204.125 507.769 226.5 510.534 C 242.088 512.459 272.381 512.216 288 510.039 C 305.188 507.645 331.055 500.959 345.5 495.178 C 348.25 494.078 352.913 492.22 355.863 491.05 C 364.67 487.556 388.089 474.595 388.833 472.803 C 389.017 472.361 389.609 472 390.15 472 C 391.435 472 409.222 458.822 415 453.589 C 423.794 445.624 434.622 434.377 441.868 425.679 C 448.664 417.523 460.913 400.171 463.172 395.5 C 463.704 394.4 465.446 391.25 467.043 388.5 C 472.439 379.21 475.707 371.855 482.149 354.5 C 486.319 343.269 488.619 334.646 491.753 318.5 C 494.262 305.574 494.471 302.582 494.477 279.5 C 494.483 257.486 494.208 253.067 492.173 242.5 C 486.927 215.272 477.614 188.556 466.602 169.154 C 464.621 165.664 463 162.686 463 162.536 C 463 161.874 452.035 145.883 447.544 139.996 C 440.943 131.343 437.519 127.593 424.5 114.758 C 410.44 100.896 411.534 101.87 402.893 95.503 C 398.827 92.507 395.045 89.676 394.488 89.211 C 392.507 87.557 381.948 81 381.231 80.978 C 380.829 80.966 379.375 80.076 378 79 C 376.625 77.924 374.949 77.034 374.276 77.022 C 373.089 77.001 362.058 71.836 357 68.934 C 355.625 68.146 354.373 67.448 354.217 67.384 C 354.062 67.32 353.248 61.695 352.41 54.884 C 351.572 48.073 350.439 40.494 349.892 38.041 C 349.345 35.589 348.471 30.189 347.948 26.041 C 346.806 16.967 343.24 4.167 341.181 1.75 C 339.783 0.109 334.492 0 256.456 0 C 178.614 0 173.092 0.113 171.22 1.75 M 174.157 12.75 C 173.544 15.912 172.357 22.036 171.521 26.357 C 170.684 30.678 170 34.841 170 35.607 C 170 36.735 172.835 37 184.928 37 L 199.856 37 L 200.387 31.75 C 200.679 28.862 201.17 22.113 201.479 16.75 L 202.04 7 L 188.657 7 L 175.273 7 L 174.157 12.75 M 208.652 13.75 C 208.301 17.462 208.011 21.738 208.007 23.25 L 208 26 L 256.645 26 L 305.289 26 L 304.652 19.25 C 304.301 15.537 304.011 11.262 304.007 9.75 L 304 7 L 256.645 7 L 209.289 7 L 208.652 13.75 M 311.407 18.25 C 311.787 24.438 312.359 31.188 312.677 33.25 L 313.256 37 L 328.195 37 C 341.94 37 343.096 36.86 342.653 35.25 C 342.388 34.288 341.453 29.9 340.575 25.5 C 339.698 21.1 338.502 15.138 337.918 12.25 L 336.857 7 L 323.786 7 L 310.715 7 L 311.407 18.25 M 206.639 39.25 C 206.313 42.688 205.752 50.112 205.394 55.75 L 204.742 66 L 256.196 66 L 307.65 66 L 307.297 54.75 C 307.103 48.563 306.699 41.138 306.4 38.25 L 305.856 33 L 256.545 33 L 207.233 33 L 206.639 39.25 M 167.132 55.75 C 164.986 75.128 164.105 87.852 164.051 100.25 C 164.023 106.713 164.143 112 164.317 112 C 164.491 112 167.113 110.732 170.143 109.182 C 173.174 107.633 179.443 104.894 184.076 103.097 C 188.709 101.299 193.42 99.469 194.545 99.029 C 196.47 98.277 196.663 96.87 197.848 74.865 C 198.54 62.014 199.356 49.813 199.662 47.75 L 200.219 44 L 184.326 44 L 168.434 44 L 167.132 55.75 M 313.485 46.25 C 313.982 48.387 315.983 87.395 315.994 95.171 C 315.999 98.448 316.327 98.913 319.05 99.511 C 322.822 100.34 332.389 104.189 341 108.343 C 344.575 110.068 347.873 111.646 348.33 111.849 C 349.795 112.504 348.001 75.013 345.812 59.25 L 343.695 44 L 328.329 44 L 312.962 44 L 313.485 46.25 M 204.991 79.25 C 204.987 82.688 204.706 87.804 204.367 90.62 L 203.752 95.74 L 208.626 94.942 C 211.307 94.503 216.65 93.326 220.5 92.325 C 226.503 90.766 231.629 90.511 256.5 90.537 C 283.103 90.566 286.285 90.755 295 92.833 C 310.877 96.617 309.373 96.675 308.651 92.304 C 308.305 90.212 308.017 85.013 308.011 80.75 L 308 73 L 256.5 73 L 205 73 L 204.991 79.25 M 149.553 79.938 C 145.733 82.015 142.299 84.566 141.923 85.607 C 141.547 86.648 140.012 91.775 138.512 97 C 135.99 105.784 133.206 114.337 130.05 123 C 129.348 124.925 128.192 128.573 127.481 131.106 C 126.77 133.639 125.246 137.558 124.094 139.816 C 122.942 142.073 122 144.128 122 144.381 C 122 144.635 123.926 142.965 126.281 140.671 C 133.761 133.383 142.905 125.882 150.794 120.562 C 153.155 118.97 155.292 117.336 155.543 116.931 C 155.793 116.526 156.441 109.289 156.983 100.848 C 157.525 92.406 158.179 83.362 158.437 80.75 C 158.764 77.431 158.543 76.024 157.703 76.081 C 157.041 76.125 153.374 77.861 149.553 79.938 M 356 95.35 C 356 114.433 356.328 118 358.083 118 C 360.052 118 376.61 130.773 383.547 137.643 L 391.001 145.025 L 388.911 139.762 C 387.761 136.868 386.341 133.15 385.755 131.5 C 385.169 129.85 383.713 125.8 382.519 122.5 C 381.325 119.2 379.391 113.35 378.22 109.5 C 377.05 105.65 374.837 98.362 373.302 93.305 C 370.569 84.297 370.421 84.066 366.006 81.899 C 363.528 80.682 360.262 78.827 358.75 77.775 L 356 75.864 L 356 95.35 M 123.856 94.639 C 73.596 128.555 39.802 180.034 27.776 241 C 25.734 251.351 25.516 255.248 25.593 280 C 25.673 305.754 25.849 308.325 28.363 320.5 C 33.328 344.549 41.643 367.095 53.191 387.814 C 62.639 404.767 77.548 424.618 90.305 437.23 C 98.042 444.879 114.453 459 115.606 459 C 116.027 459 117.3 459.834 118.436 460.853 C 120.637 462.83 133.739 472 134.362 472 C 135.577 472 125.838 438.34 119.751 421.5 C 112.382 401.113 109.063 393.58 104.769 387.5 C 103.216 385.3 100.495 381.224 98.722 378.442 C 96.95 375.659 94.932 372.509 94.238 371.442 C 91.425 367.115 82.191 347.022 79.788 340 C 69.995 311.382 66.84 281.164 70.6 252 C 72.608 236.419 79.844 208.789 83.867 201.335 C 84.412 200.326 86.511 196.125 88.531 192 C 90.551 187.875 93.719 182.025 95.57 179 C 97.421 175.975 99.266 172.825 99.669 172 C 100.072 171.175 102.237 168.025 104.479 165 C 110.625 156.707 117.685 139.689 126.881 111 C 131.866 95.448 133.567 89 132.685 89 C 132.425 89 128.452 91.537 123.856 94.639 M 380 90.715 C 380 91.623 380.842 94.872 381.872 97.933 C 382.902 100.995 384.988 107.55 386.509 112.5 C 389.857 123.395 393.621 134.097 396.007 139.5 C 400.453 149.57 403 155.825 403 156.675 C 403 157.184 405.025 160.383 407.5 163.784 C 409.975 167.186 412 170.155 412 170.384 C 412 170.612 413.624 173.207 415.609 176.15 C 426.131 191.747 438.676 225.272 440.533 242.75 L 441.196 249 L 451.133 249 C 467.821 249 469 250.782 469 276 C 469 293.279 468.117 298.522 464.852 300.628 C 464.108 301.108 458.55 301.725 452.5 302 L 441.5 302.5 L 440.314 310.308 C 436.646 334.447 426.045 360.197 409.874 384.252 C 406.638 389.065 403.053 395.365 401.907 398.252 C 391.505 424.448 390.096 428.46 384.616 447.5 C 379.778 464.31 378.058 470.499 378.029 471.203 C 377.966 472.716 396.118 459.788 407.5 450.214 C 422.105 437.928 430 429.73 442.378 413.994 C 450.825 403.255 473 363.447 473 359.02 C 473 358.388 473.849 355.762 474.887 353.185 C 480.427 339.428 484.566 321.799 486.55 303.5 C 492.31 250.396 479.09 198.7 448.062 153 C 434.282 132.704 411.134 109.549 389.983 94.905 C 381.886 89.299 380 88.507 380 90.715 M 242.5 96.606 C 240.85 96.853 234.263 97.705 227.863 98.501 C 215.266 100.066 199.319 104.283 187.768 109.102 C 183.771 110.77 179.165 112.632 177.534 113.24 C 170.105 116.01 150.095 128.66 141.56 135.983 C 133.314 143.057 118.372 158.557 110.993 167.691 C 105.509 174.48 94.627 194.226 88.57 208.378 C 85.527 215.488 81.306 230.368 78.89 242.5 C 76.806 252.963 76.5 257.318 76.5 276.5 C 76.5 295.588 76.809 300.022 78.832 310 C 81.23 321.83 87.461 342.763 89.085 344.45 C 89.588 344.972 90 345.973 90 346.674 C 90 348.073 95.067 358.65 99.498 366.5 C 101.05 369.25 102.811 372.4 103.41 373.5 C 104.01 374.6 104.747 375.725 105.048 376 C 105.35 376.275 106.661 378.075 107.962 380 C 114.917 390.288 131.251 408.044 141.872 416.859 C 155.33 428.03 176.472 440.166 192.753 446.068 C 238.795 462.755 290.154 460.537 333.397 439.992 C 338.018 437.797 342.1 436 342.467 436 C 342.833 436 344.608 434.875 346.411 433.5 C 348.214 432.125 349.987 431 350.352 431 C 351.265 431 368.996 418.169 371.648 415.589 C 372.829 414.44 377.413 410 381.835 405.722 C 386.256 401.445 392.734 394.47 396.23 390.222 C 405.165 379.366 407.706 375.551 415.36 361.5 C 423.656 346.272 429.15 331.133 433.143 312.5 C 435.27 302.574 435.5 299.01 435.5 276 C 435.5 248.56 434.658 242.111 428.385 221.5 C 413.896 173.898 379.633 133.922 336 113.71 C 330.775 111.29 324.7 108.731 322.5 108.024 C 320.3 107.318 318.05 106.4 317.5 105.985 C 316.95 105.57 314.925 104.915 313 104.529 C 311.075 104.142 306.591 102.95 303.035 101.879 C 299.479 100.808 291.604 99.257 285.535 98.431 C 274.323 96.906 247.965 95.788 242.5 96.606 M 234 113.663 C 227.146 114.559 204.888 120.007 202.018 121.491 C 200.413 122.321 198.408 123 197.563 123 C 195.517 123 174.684 133.192 169 136.974 C 166.525 138.62 163.827 140.29 163.005 140.685 C 160 142.126 147.626 152.163 141.348 158.25 C 128.768 170.449 119.345 183.302 110.703 200.054 C 103.223 214.553 96.583 234.128 94.977 246.419 C 94.469 250.314 93.536 257.55 92.906 262.5 C 91.595 272.785 92.181 287.71 94.494 303 C 97.224 321.037 103.658 339.688 113.127 357.012 C 114.782 360.041 123.861 373.736 125.984 376.407 C 133.306 385.619 142.926 395.58 150.921 402.231 C 159.828 409.641 170.178 417 171.691 417 C 172.049 417 173.053 417.61 173.921 418.354 C 177.191 421.16 193.165 428.694 202.5 431.834 C 205.8 432.944 213.675 435.12 220 436.67 C 231.023 439.372 232.516 439.488 256 439.488 C 279.269 439.488 281.052 439.352 291.5 436.778 C 306.523 433.075 314.66 430.183 327 424.16 C 339.144 418.232 345.09 414.859 350 411.112 C 351.925 409.643 354.625 407.728 356 406.857 C 360.937 403.727 378.05 386.715 384.892 378.135 C 388.73 373.323 393.843 366.036 396.254 361.943 C 401.625 352.825 408.186 340 407.479 340 C 407.193 340 407.808 338.313 408.845 336.25 C 411.903 330.17 416.626 312.376 418.499 299.879 C 420.459 286.806 420.233 261.386 418.038 248 C 416.008 235.619 411.096 219.913 404.746 205.5 C 393.732 180.501 371.757 154.876 348.5 139.913 C 338.799 133.671 336.067 132.102 329 128.709 C 319.236 124.023 306.195 119.599 292.5 116.328 C 282.611 113.967 279.278 113.676 259.5 113.453 C 247.4 113.317 235.925 113.411 234 113.663 M 232 121.437 C 222.492 122.726 210.012 125.969 199.5 129.882 C 191.804 132.748 174.416 141.399 171.921 143.604 C 171.053 144.372 170.007 145 169.597 145 C 168.041 145 154.213 156.094 147.5 162.729 C 132.858 177.2 124.227 188.836 116.518 204.5 C 109.461 218.841 105.538 230.373 102.253 246.436 C 99.944 257.726 99.585 261.877 99.613 277 C 99.655 299.884 102.33 313.087 112.175 339 C 113.95 343.672 121.651 357.706 124.622 361.683 C 125.93 363.434 127 365.309 127 365.85 C 127 366.391 127.338 366.983 127.75 367.167 C 128.162 367.35 131.146 370.81 134.379 374.857 C 137.613 378.903 142.788 384.784 145.879 387.925 C 151.329 393.464 169.271 408 170.657 408 C 171.034 408 172.053 408.642 172.921 409.427 C 175.348 411.62 193.249 420.713 199.726 423.042 C 225.56 432.333 252.396 435.208 279 431.533 C 324.424 425.259 366.419 397.398 390.389 357.634 C 400.32 341.16 405.337 328.296 410.134 307 C 412.213 297.772 412.5 293.956 412.5 275.5 C 412.5 257.067 412.216 253.278 410.178 244.5 C 402.516 211.5 389.677 187.588 368.031 166 C 355.236 153.239 355.513 153.474 345.012 146.484 C 324.5 132.83 299.959 123.601 277.5 121.096 C 265.226 119.727 243.412 119.891 232 121.437 M 232.036 126.585 C 221.083 128.287 207.185 132.254 196.776 136.649 C 192.224 138.572 187.825 140.418 187 140.752 C 185.153 141.501 180.074 144.656 169.017 151.924 C 158.804 158.637 141.639 175.377 133.227 186.828 C 125.661 197.127 116.061 216.387 112.207 229 C 107.141 245.579 105.762 254.318 105.258 273.033 C 104.85 288.178 105.087 292.196 106.993 302.533 C 109.742 317.434 116.564 338.005 121.11 345.097 C 121.957 346.419 122.967 348.36 123.355 349.412 C 124.029 351.235 132.796 364.954 133.957 366 C 134.262 366.275 135.836 368.3 137.455 370.5 C 142.461 377.302 153.079 387.871 162.678 395.605 C 167.727 399.672 172.144 403 172.495 403 C 172.846 403 174.566 404.05 176.317 405.334 C 178.068 406.618 183.1 409.507 187.5 411.754 C 213.598 425.082 246.603 430.726 275.948 426.879 C 292.527 424.705 318.77 415.994 330.5 408.771 C 331.6 408.094 334.75 406.195 337.5 404.553 C 340.25 402.91 342.725 401.323 343 401.027 C 343.275 400.731 346.2 398.482 349.5 396.029 C 376.18 376.196 396.534 344.038 404.4 309.291 C 410.465 282.499 408.874 253.945 399.786 226.5 C 391.199 200.567 373.363 174.753 352.788 158.482 C 331.141 141.362 305.288 130.227 278.576 126.517 C 265.609 124.716 243.858 124.748 232.036 126.585 M 243.615 128.039 C 217.922 130.939 194.282 138.742 177 150.029 C 174.525 151.645 171.825 153.283 171 153.669 C 168.352 154.907 153.681 167.609 147.921 173.649 C 126.137 196.496 112.658 224.904 108.883 255.925 C 107.146 270.208 108.198 297.246 110.95 309 C 121.322 353.309 152.57 392.476 192.342 411.02 C 209.009 418.79 224.244 422.757 245.841 424.948 C 271.632 427.564 302.649 420.698 328.192 406.716 C 351.376 394.026 373.258 372.5 385.848 350 C 396.611 330.763 402.042 313.025 404.076 290.462 C 409.089 234.863 385.026 183.437 339.384 152.211 C 322.17 140.433 300.512 132.722 273 128.573 C 265.556 127.45 251.151 127.189 243.615 128.039 M 254 140.941 C 254 148.063 254.639 149.46 257.41 148.396 C 258.651 147.92 259 146.271 259 140.893 C 259 134.207 258.925 134 256.5 134 C 254.073 134 254 134.204 254 140.941 M 236.485 141.75 C 237.262 147.998 237.723 149.289 238.916 148.552 C 239.344 148.288 239.339 145.918 238.906 143.286 C 238.473 140.654 238.092 137.938 238.06 137.25 C 238.027 136.563 237.498 136 236.885 136 C 236.111 136 235.988 137.76 236.485 141.75 M 274.638 136.777 C 274.314 137.301 273.751 140.265 273.387 143.365 C 272.496 150.942 274.476 150.849 275.812 143.25 C 276.733 138.007 276.085 134.435 274.638 136.777 M 218.36 141.75 C 218.631 142.713 219.151 145.412 219.515 147.75 C 219.958 150.601 220.677 152 221.699 152 C 222.907 152 223.083 151.253 222.546 148.393 C 221.567 143.176 220.209 140 218.957 140 C 218.357 140 218.088 140.787 218.36 141.75 M 290.979 144.25 C 290.375 146.588 289.652 149.287 289.373 150.25 C 289.05 151.365 289.41 152 290.365 152 C 291.994 152 292.505 150.743 293.515 144.25 C 293.938 141.53 293.798 140 293.126 140 C 292.549 140 291.583 141.912 290.979 144.25 M 201 147.957 C 201 150.721 204.832 158.222 205.905 157.559 C 207.007 156.878 203.656 146.719 202.166 146.222 C 201.522 146.007 201 146.784 201 147.957 M 307.539 151.182 C 305.756 157.186 305.678 158 306.891 158 C 307.996 158 311 150.673 311 147.98 C 311 144.23 309.074 146.011 307.539 151.182 M 183.105 153.373 C 181.779 154.971 182.415 157.055 185.813 162.25 C 188.369 166.158 189.811 166.789 191.749 164.851 C 192.997 163.603 191.535 159.996 187.657 154.75 C 185.35 151.63 184.712 151.437 183.105 153.373 M 323.096 157.002 C 319.579 162.429 319.384 165.352 322.51 165.759 C 323.993 165.952 325.335 164.582 327.775 160.387 C 330.856 155.089 330.945 154.677 329.275 153.41 C 326.719 151.471 326.655 151.509 323.096 157.002 M 169 165.553 C 169 167.577 174.133 174 175.75 174 C 177.521 174 177.301 172.7 175.135 170.376 C 174.11 169.275 172.744 167.39 172.1 166.187 C 170.743 163.651 169 163.295 169 165.553 M 339.084 167.894 C 335.989 171.802 335.208 174 336.916 174 C 338.085 174 344 166.574 344 165.106 C 344 162.979 342.143 164.032 339.084 167.894 M 192.93 171.584 C 191.936 172.781 191.89 173.574 192.741 174.834 C 193.36 175.75 195.958 179.988 198.515 184.25 C 202.289 190.543 203.623 192 205.613 192 C 209.57 192 209.425 189.542 205.08 183.001 C 202.836 179.622 201 176.622 201 176.334 C 201 176.045 200.069 174.502 198.932 172.904 C 196.607 169.639 194.863 169.255 192.93 171.584 M 314.534 170.946 C 314.173 171.529 313.327 173.017 312.653 174.253 C 311.979 175.489 309.728 179.111 307.65 182.301 C 303.455 188.744 303.24 191.5 306.932 191.5 C 309.36 191.5 310.301 190.353 315.088 181.563 C 316.267 179.397 317.879 176.979 318.669 176.188 C 320.732 174.126 319.944 170.563 317.344 170.193 C 316.159 170.024 314.894 170.363 314.534 170.946 M 155 178.5 C 155 179.325 155.412 180 155.915 180 C 156.419 180 158.105 181.35 159.662 183 C 162.726 186.246 164 186.744 164 184.696 C 164 183.078 157.842 177 156.202 177 C 155.541 177 155 177.675 155 178.5 M 351.535 180.104 C 348.461 182.802 346.852 186 348.567 186 C 349.817 186 356.965 179.417 356.982 178.25 C 357.011 176.217 355.296 176.801 351.535 180.104 M 142.522 190.964 C 141.706 192.286 151.267 199.117 152.383 198.01 C 153.36 197.04 148.274 192.083 146.25 192.032 C 145.563 192.014 145 191.55 145 191 C 145 189.724 143.304 189.699 142.522 190.964 M 363.58 192.783 C 359.578 195.557 357.903 198 360.003 198 C 361.518 198 370 191.917 370 190.83 C 370 189.295 367.528 190.047 363.58 192.783 M 354.284 204.116 C 353.67 204.73 352.233 205.742 351.09 206.366 C 347.295 208.438 334.615 216.25 326 221.825 C 321.325 224.851 314.35 229.346 310.5 231.814 C 306.65 234.283 300.448 238.372 296.718 240.902 C 292.988 243.431 289.163 245.953 288.218 246.507 C 283.45 249.3 265.953 261.267 265.453 262.077 C 264.666 263.35 270.162 270.952 271.888 270.979 C 273.15 270.998 276.314 268.782 294.251 255.317 C 297.415 252.943 300.246 251 300.544 251 C 300.842 251 303.654 249.088 306.793 246.75 C 309.932 244.412 313.223 242.05 314.107 241.5 C 315.803 240.445 321.405 236.526 326.609 232.754 C 328.32 231.514 331.02 229.608 332.609 228.518 C 341.676 222.301 356.548 211.393 356.833 210.75 C 357.017 210.338 357.788 210 358.548 210 C 360.601 210 362.016 206.779 360.866 204.724 C 359.777 202.779 355.972 202.428 354.284 204.116 M 376 204.5 C 375.315 205.325 374.248 206.016 373.628 206.036 C 371.329 206.109 366.702 210.782 367.324 212.403 C 368.179 214.631 372.33 214.398 374.5 212 C 375.495 210.9 376.86 210 377.533 210 C 379.867 210 381.233 207.305 380.034 205.064 C 378.723 202.613 377.686 202.468 376 204.5 M 132.667 204.667 C 130.267 207.066 137.02 213.745 142.394 214.288 C 145.75 214.627 145.686 210.689 142.3 208.415 C 136.222 204.333 133.903 203.431 132.667 204.667 M 150.184 217.691 C 150.509 220.459 153.404 222.671 164.433 228.577 C 169.124 231.09 169.431 231.131 170.683 229.419 C 171.407 228.428 172 227.248 172 226.796 C 172 225.977 161.669 219 160.456 219 C 160.104 219 158.671 218.1 157.273 217 C 155.874 215.9 153.636 215 152.299 215 C 150.247 215 149.917 215.421 150.184 217.691 M 349.25 220.284 C 342.901 224.171 341 225.848 341 227.561 C 341 231.312 343.819 231.25 350.355 227.355 C 359.756 221.752 363 219.083 363 216.949 C 363 213.641 358.198 214.806 349.25 220.284 M 124 222.801 C 124 223.817 132.536 228 134.61 228 C 137.711 228 135.234 225.5 130.423 223.774 C 124.891 221.79 124 221.655 124 222.801 M 181.738 223.629 C 179.005 225.061 178.377 226.611 179.765 228.5 C 181.089 230.301 189.813 237 190.835 237 C 191.384 237 191.983 237.375 192.167 237.833 C 192.48 238.616 199.065 243.541 212.812 253.271 C 216.097 255.597 223.305 260.762 228.829 264.75 C 234.353 268.738 239.292 272 239.804 272 C 241.031 272 246 264.452 246 262.589 C 246 261.789 245.1 260.849 244 260.5 C 242.9 260.151 242 259.543 242 259.148 C 242 258.754 240.537 257.585 238.75 256.55 C 236.963 255.515 229.2 250.519 221.5 245.447 C 207.792 236.418 191.984 226.415 186.988 223.607 C 184.821 222.389 184.1 222.392 181.738 223.629 M 384.5 223 C 384.16 223.55 383.058 224 382.052 224 C 381.045 224 379.159 224.885 377.861 225.967 L 375.5 227.933 L 377.79 227.967 C 380.538 228.007 388 224.362 388 222.98 C 388 221.697 385.296 221.712 384.5 223 M 119 240.293 C 119 241.49 126.117 244 129.514 244 C 132.883 244 130.64 242.037 125.596 240.571 C 119.068 238.673 119 238.67 119 240.293 M 386.199 240.986 C 382.52 241.858 381.34 242.673 382.328 243.661 C 383.201 244.534 394 241.924 394 240.84 C 394 239.843 390.774 239.903 386.199 240.986 M 116.527 256.806 C 116.237 257.096 116 257.933 116 258.667 C 116 259.616 117.583 260 121.5 260 C 124.525 260 127 259.55 127 259 C 127 258.45 126.662 257.98 126.25 257.956 C 125.838 257.932 123.6 257.545 121.277 257.096 C 118.955 256.646 116.817 256.516 116.527 256.806 M 443 258.5 C 443 260.991 443.033 261 452.5 261 C 459.628 261 462 260.675 462 259.7 C 462 256.864 459.501 256 451.3 256 C 443.113 256 443 256.034 443 258.5 M 390.25 257.737 C 386.311 258.013 385 258.495 385 259.669 C 385 260.803 385.619 261.067 387.25 260.63 C 388.488 260.299 391.188 260.021 393.25 260.014 C 395.911 260.004 397 259.564 397 258.5 C 397 257.675 396.663 257.083 396.25 257.185 C 395.837 257.287 393.137 257.535 390.25 257.737 M 250.232 265.228 C 246.245 267.15 243.695 272.483 244.428 277.366 C 245.068 281.637 245.057 281.656 240.593 283.952 C 235.708 286.465 234.34 288.499 236.105 290.627 C 237.658 292.498 238.716 292.355 240.732 290 C 241.674 288.9 242.872 288 243.394 288 C 243.915 288 245.167 287.254 246.175 286.341 C 247.786 284.884 248.493 284.843 252.004 286.001 C 255.312 287.093 256.688 287.093 259.996 286.001 C 263.507 284.843 264.214 284.884 265.825 286.341 C 266.833 287.254 268.076 288 268.588 288 C 269.1 288 270.099 288.928 270.807 290.063 C 272.501 292.775 276.386 292.298 276.81 289.325 C 277.048 287.652 276.241 286.735 273.31 285.346 C 267.353 282.525 266.026 281.061 267.032 278.416 C 267.907 276.115 267.136 271.991 265.131 268.245 C 263.164 264.569 255.021 262.92 250.232 265.228 M 443.18 270.25 C 443.48 272.356 444.011 272.508 451.485 272.628 C 460.766 272.778 462 272.457 462 269.893 C 462 268.168 461.153 268 452.43 268 C 443.078 268 442.868 268.051 443.18 270.25 M 254.153 273.247 C 252.44 274.96 252.752 276.797 254.958 277.978 C 256.531 278.819 257.121 278.642 257.958 277.078 C 259.35 274.478 259.3 274.231 257.153 273.082 C 255.883 272.402 254.947 272.453 254.153 273.247 M 114.184 275.75 C 114.484 278.363 114.795 278.515 120.396 278.804 C 126.879 279.139 128.54 278.277 127.532 275.101 C 126.945 273.25 126.091 273 120.366 273 L 113.867 273 L 114.184 275.75 M 133.478 275.071 C 133.106 276.242 133.221 277.621 133.734 278.134 C 134.247 278.647 140.029 278.939 146.583 278.783 L 158.5 278.5 L 158.5 276 L 158.5 273.5 L 146.327 273.22 C 134.662 272.951 134.126 273.029 133.478 275.071 M 353.362 274.5 C 351.855 278.426 353.458 279 365.933 279 C 376.574 279 378.041 278.791 378.918 277.153 C 380.735 273.758 378.335 273 365.769 273 C 356.174 273 353.828 273.284 353.362 274.5 M 385.709 273.624 C 385.319 274.014 385 275.404 385 276.712 C 385 279.012 385.226 279.081 391.741 278.796 C 398.184 278.513 398.483 278.389 398.491 276 C 398.5 273.64 398.161 273.484 392.459 273.208 C 389.136 273.047 386.099 273.234 385.709 273.624 M 443.229 281.5 L 443.022 284 L 452.511 284 C 461.966 284 462 283.991 462 281.5 C 462 279.013 461.952 279 452.718 279 C 443.539 279 443.434 279.028 443.229 281.5 M 443 293.5 C 443 295.956 443.138 296 450.929 296 C 458.647 296 462 294.767 462 291.929 C 462 291.418 457.725 291 452.5 291 C 443.033 291 443 291.009 443 293.5 M 118.25 292.706 C 117.013 292.944 116 293.813 116 294.637 C 116 295.593 116.633 295.949 117.75 295.621 C 118.713 295.338 121.188 294.808 123.25 294.442 C 125.313 294.076 127 293.377 127 292.889 C 127 291.995 122.435 291.9 118.25 292.706 M 385 292.834 C 385 294.049 395.71 296.623 396.689 295.644 C 397.947 294.386 395.527 293.207 390.25 292.508 C 386.887 292.062 385 292.18 385 292.834 M 123.58 309.336 C 121.424 309.987 119.474 311.077 119.247 311.76 C 118.744 313.269 119.184 313.258 125.449 311.608 C 128.171 310.891 130.571 309.786 130.783 309.152 C 131.259 307.724 128.707 307.79 123.58 309.336 M 381.538 308.939 C 381.172 309.53 381.689 310.302 382.687 310.655 C 383.684 311.007 386.017 311.904 387.872 312.648 C 392.053 314.324 393 314.342 393 312.743 C 393 312.052 391.313 310.958 389.25 310.312 C 387.188 309.666 384.758 308.851 383.851 308.501 C 382.944 308.15 381.903 308.348 381.538 308.939 M 165.699 323.022 C 164.316 324.11 162.95 325 162.664 325 C 162.378 325 159.411 326.628 156.072 328.617 C 151.318 331.449 150 332.758 150 334.648 C 150 338.594 152.193 338.329 160.564 333.371 C 172.54 326.278 174.236 324.267 170.107 322.057 C 168.66 321.283 167.621 321.511 165.699 323.022 M 341.018 323.966 C 340.137 325.612 340.417 326.208 342.733 327.626 C 344.255 328.558 347.075 330.324 349 331.551 C 350.925 332.778 354.434 334.843 356.798 336.141 C 360.944 338.417 361.144 338.435 362.479 336.653 C 364.309 334.21 363.527 332.504 359.673 330.529 C 357.928 329.635 354.025 327.368 351 325.491 C 344.651 321.551 342.487 321.221 341.018 323.966 M 129.176 325.867 C 124.825 327.633 123.779 329.732 127.5 329.23 C 130.47 328.83 136 326.047 136 324.953 C 136 323.601 134.146 323.849 129.176 325.867 M 376 325.049 C 376 326.262 383.659 329.946 386.25 329.978 C 389.488 330.019 388.036 328.262 383.065 326.123 C 377.542 323.748 376 323.513 376 325.049 M 137.5 340.004 C 133.762 342.13 132.5 343.432 132.5 345.16 C 132.5 348.389 134.949 348.524 139.352 345.536 C 141.407 344.141 143.549 343 144.111 343 C 145.413 343 144.838 337.738 143.5 337.407 C 142.95 337.27 140.25 338.439 137.5 340.004 M 367.667 338.667 C 366.126 340.207 367.271 341.991 371.671 344.906 C 376.863 348.344 379.481 348.796 380.396 346.41 C 381.228 344.243 380.69 343.594 375.571 340.595 C 371.11 337.98 368.894 337.44 367.667 338.667 M 147.25 357.099 C 142.985 360.12 141.86 362 144.318 362 C 145.863 362 154 355.937 154 354.786 C 154 353.253 151.444 354.129 147.25 357.099 M 359.441 355.095 C 359.058 355.716 359.166 356.511 359.682 356.862 C 360.198 357.213 362.301 358.807 364.356 360.404 C 367.147 362.573 368.38 363.02 369.229 362.171 C 369.855 361.545 370.172 360.895 369.933 360.726 C 369.695 360.557 367.925 359.28 366 357.889 C 360.774 354.11 360.201 353.866 359.441 355.095 M 200.737 364.25 C 190.7 379.887 190.917 379.373 193.75 380.83 C 196.55 382.27 197.649 381.311 202.527 373.18 C 205.06 368.956 207.666 364.686 208.317 363.691 C 209.288 362.206 209.153 361.625 207.559 360.441 C 206.491 359.649 205.278 359 204.862 359 C 204.447 359 202.59 361.363 200.737 364.25 M 304.528 360.615 C 303.137 362.005 303.105 362.517 304.291 364.363 C 305.047 365.538 307.569 369.726 309.898 373.668 C 314.315 381.148 316.321 382.809 318.627 380.895 C 320.565 379.286 320.463 378.936 315.998 371.85 C 313.797 368.358 311.568 364.515 311.046 363.311 C 309.581 359.936 306.487 358.656 304.528 360.615 M 158.158 370.508 C 153.33 375.401 155.195 377.192 160.115 372.388 C 162.252 370.301 164 368.235 164 367.797 C 164 366.056 161.328 367.296 158.158 370.508 M 348 368.115 C 348 369.347 354.915 376 356.195 376 C 357.974 376 356.813 373.521 353.55 370.351 C 350.032 366.935 348 366.116 348 368.115 M 254.25 370.662 C 253.337 371.031 253 374.799 253 384.65 L 253 398.133 L 255.75 397.816 L 258.5 397.5 L 258.781 384.578 C 259.085 370.594 258.544 368.93 254.25 370.662 M 172.167 380.941 C 170.425 383.109 169.015 385.922 169.033 387.191 L 169.067 389.5 L 170.99 387 C 172.048 385.625 173.833 383.304 174.957 381.842 C 177.082 379.078 177.601 377 176.167 377 C 175.709 377 173.909 378.774 172.167 380.941 M 335 378.498 C 335 378.771 336.637 381.274 338.638 384.059 C 341.018 387.372 342.616 388.784 343.258 388.142 C 344.448 386.952 338.334 378 336.33 378 C 335.599 378 335 378.224 335 378.498 M 188.25 385.662 C 187.563 385.94 187 386.563 187 387.048 C 187 387.533 185.664 389.858 184.031 392.215 L 181.062 396.5 L 183.225 398.318 C 185.334 400.089 185.434 400.076 187.14 397.818 C 190.845 392.913 192.765 388.332 191.822 386.646 C 190.869 384.943 190.371 384.806 188.25 385.662 M 321.115 385.897 C 319.302 387.059 320.28 390.956 323.672 396.081 C 326.578 400.471 326.414 400.384 329.068 398.964 C 330.982 397.939 330.982 397.885 329.057 394.214 C 325.93 388.249 322.708 384.875 321.115 385.897 M 202.123 399.935 C 199.777 405.389 199.515 407 200.974 407 C 202.221 407 204.556 402.443 205.459 398.25 C 206.521 393.317 204.54 394.318 202.123 399.935 M 305.525 395.959 C 305.199 396.487 305.36 397.724 305.883 398.709 C 306.405 399.694 307.375 401.962 308.038 403.75 C 309.391 407.4 311 408.057 311 404.96 C 311 403.008 307.413 395 306.539 395 C 306.307 395 305.851 395.432 305.525 395.959 M 219.436 403.75 C 219.105 405.262 218.459 407.699 217.999 409.165 C 217.201 411.709 217.541 413 219.008 413 C 219.38 413 220.233 411.087 220.905 408.75 C 221.578 406.413 222.354 403.712 222.631 402.75 C 222.956 401.62 222.586 401 221.586 401 C 220.71 401 219.777 402.193 219.436 403.75 M 289 401.818 C 289 404.12 292.208 413 293.039 413 C 294.258 413 294.244 412.237 292.917 406.049 C 292.235 402.868 291.31 401 290.417 401 C 289.638 401 289 401.368 289 401.818 M 236.386 409.2 C 235.313 416.172 235.316 416.272 236.629 416.71 C 237.324 416.941 238.013 415.05 238.42 411.793 C 239.302 404.731 239.298 404.599 238.176 404.225 C 237.64 404.047 236.834 406.285 236.386 409.2 M 253 410.817 C 253 417.493 253.102 417.786 255.579 418.26 C 258.786 418.873 259.191 417.884 258.804 410.388 C 258.515 404.795 258.362 404.484 255.75 404.184 L 253 403.867 L 253 410.817 M 272.663 404.75 C 272.126 405.635 273.673 416.007 274.46 416.793 C 275.778 418.112 276.158 415.67 275.507 410.061 C 274.869 404.561 273.889 402.731 272.663 404.75 M 384.469 413.052 C 381.186 416.38 373.438 422.97 367.25 427.696 L 356 436.289 L 356 445.838 C 356 451.09 355.509 461.634 354.909 469.269 C 354.309 476.905 353.991 483.324 354.201 483.535 C 354.412 483.745 357.737 482.349 361.591 480.431 L 368.598 476.945 L 372.436 464.222 C 374.546 457.225 377.392 447.675 378.76 443 C 382.375 430.641 386.849 417.152 388.118 414.78 C 389.192 412.772 391.07 407 390.649 407 C 390.533 407 387.751 409.723 384.469 413.052 M 123.483 411.5 C 127.643 421.32 141.024 465.174 141.007 468.929 C 141.003 469.715 141.51 471.768 142.133 473.491 C 143.245 476.567 148.937 480.378 156.366 483.02 L 159.233 484.039 L 158.578 479.67 C 157.63 473.352 156.114 440.279 156.674 438.139 C 156.99 436.93 156.208 435.725 154.324 434.518 C 147.053 429.862 135.825 420.958 129.145 414.553 L 121.789 407.5 L 123.483 411.5 M 345 441.867 C 342.114 443.949 322.769 452.578 318.881 453.518 L 316.262 454.151 L 315.538 467.826 C 315.139 475.346 314.448 485.1 314.001 489.5 C 313.555 493.9 313.26 497.576 313.346 497.668 C 314.064 498.438 335.652 491.622 341.992 488.624 C 346.238 486.616 346.52 486.226 347.136 481.5 C 348.144 473.779 349.024 439.996 348.217 440.032 C 347.823 440.049 346.375 440.875 345 441.867 M 164 456.557 C 164 472.561 165.424 485.635 167.386 487.636 C 168.431 488.702 182.801 493.762 194.883 497.317 L 200.267 498.901 L 199.624 493.701 C 199.27 490.84 198.517 481.3 197.949 472.5 C 196.79 454.534 196.689 454 194.467 454 C 193.59 454 190.412 452.875 187.406 451.5 C 184.4 450.125 181.724 449 181.46 449 C 181.196 449 177.334 447.2 172.879 445 C 168.424 442.8 164.604 441 164.389 441 C 164.175 441 164 448.001 164 456.557 M 302 458.449 C 298.975 459.153 293.125 460.543 289 461.537 C 282.794 463.033 277.099 463.349 256 463.369 C 231.764 463.393 229.93 463.261 219.007 460.697 C 212.685 459.214 206.948 458 206.257 458 C 205.318 458 205 461.032 205 470 L 205 482 L 255.981 482 L 306.962 482 L 307.421 479.75 C 308.362 475.136 309.062 457.003 308.296 457.084 C 307.858 457.13 305.025 457.744 302 458.449 M 206.436 494.232 C 206.818 497.109 207.323 499.656 207.559 499.892 C 207.794 500.128 212.152 501.199 217.243 502.272 C 224.619 503.827 231.683 504.305 252 504.621 C 276.537 505.003 278.047 504.914 292 502.259 L 306.5 499.5 L 306.802 494.25 L 307.105 489 L 256.423 489 L 205.742 489 L 206.436 494.232" stroke="none" fill-rule="evenodd" style="fill: rgb(255, 255, 255);"/>
  </g>
  <g id="crown">
    <path d="M 253.336 161.567 C 253.005 162.43 253.3 164.193 253.992 165.485 C 254.898 167.178 255.05 170.238 254.535 176.418 C 253.781 185.479 252.499 187.506 251.48 181.25 C 251.144 179.188 250.507 175.607 250.065 173.293 C 249.623 170.979 249.47 167.995 249.725 166.66 C 250.265 163.835 248.813 162.607 245.991 163.503 C 244.042 164.121 243.112 168 244.912 168 C 245.414 168 246.07 169.688 246.37 171.75 C 247.822 181.713 248.115 185.999 247.344 185.983 C 246.294 185.962 242.204 176.386 241.799 173 C 241.361 169.34 237.61 169.543 237.184 173.25 C 237.01 174.762 237.279 176 237.782 176 C 238.992 176 241.266 181.677 243.99 191.5 C 245.21 195.9 246.543 200.175 246.952 201 C 248.8 204.724 257.931 206.27 262.983 203.714 C 264.349 203.023 265.801 201.342 266.21 199.979 C 271.232 183.216 273.445 176.876 274.609 175.909 C 276.246 174.551 276.447 171.394 274.956 170.473 C 273.253 169.42 271.296 171.776 270.132 176.28 C 269.533 178.601 268.091 181.85 266.929 183.5 L 264.817 186.5 L 265.388 178.101 C 265.789 172.217 266.47 169.138 267.663 167.819 C 269.18 166.144 269.202 165.773 267.861 164.432 C 265.413 161.985 263 163.686 263 167.857 C 263 172.126 260.457 184.906 259.419 185.85 C 259.026 186.207 258.954 185.488 259.258 184.251 C 259.563 183.014 259.404 181.75 258.906 181.442 C 257.639 180.659 257.77 167.298 259.069 164.87 C 259.848 163.416 259.815 162.482 258.947 161.436 C 257.364 159.529 254.089 159.606 253.336 161.567 M 251.186 198.055 C 247.288 199.618 249.781 201 256.5 201 C 263.678 201 265.565 199.741 260.85 198.097 C 257.124 196.799 254.349 196.786 251.186 198.055" stroke="none" fill-rule="evenodd" style="fill:hsl(48, 100.00%, 50.00%);" />
  </g>
</svg>
